<?xml version="1.0" encoding="utf-8"?>
<!-- Generator: Adobe Illustrator 18.0.0, SVG Export Plug-In . SVG Version: 6.00 Build 0)  -->
<!DOCTYPE svg PUBLIC "-//W3C//DTD SVG 1.1//EN" "http://www.w3.org/Graphics/SVG/1.1/DTD/svg11.dtd">
<svg version="1.1" id="Layer_1" xmlns="http://www.w3.org/2000/svg" xmlns:xlink="http://www.w3.org/1999/xlink" x="0px" y="0px"
	 viewBox="0 297.5 578 197" enable-background="new 0 297.5 578 197" xml:space="preserve">
<g id="Background">
</g>
<g id="Objects">
	<rect y="297.5" fill="#FFFFFF" width="578" height="197"/>
	<g>
		<path fill="#427BAD" d="M364.4,323.5c1,0,2.1,0.1,3.3,0.2l1.4-4.8l10.1,3.1l-1.4,4.8c3.7,1.9,6.8,4.5,9.3,7.6l4.4-2.3l5,9.4
			l-4.4,2.3c1.2,3.8,1.6,7.9,1.1,11.9l4.8,1.4l-3.1,10.1l-4.8-1.4c-1.9,3.7-4.5,6.8-7.6,9.3l2.3,4.4l-9.4,5l-2.3-4.4
			c-2.8,0.9-5.7,1.3-8.8,1.3v-7.5c9.2,0,17.6-5.9,20.5-15.2c3.5-11.3-3-23.3-14.3-26.7c-2-0.6-4.2-0.9-6.2-0.9v-7.5H364.4z
			 M346.3,329.8l-2.3-4.4l9.4-5l2.3,4.4c2.8-0.9,5.7-1.3,8.8-1.3v7.5c-9.2,0-17.6,5.9-20.5,15.2c-3.5,11.3,3,23.3,14.3,26.7l0,0
			c2,0.6,4.2,0.9,6.2,0.9v7.5c-1,0-2.1-0.1-3.3-0.2l-1.4,4.8l-10.1-3.1l1.4-4.8c-3.7-1.9-6.8-4.5-9.3-7.6l-4.4,2.3l-5-9.4l4.4-2.3
			c-1.2-3.8-1.6-7.9-1.1-11.9l-4.8-1.4l3.1-10.1l4.8,1.4C340.6,335.4,343.2,332.3,346.3,329.8z"/>
		<path fill="#427BAD" d="M561.2,378.4c1.4,0,3,0.1,4.4,0.2l1.9-6.5l13.8,4.2l-1.9,6.5c5,2.5,9.3,6.1,12.6,10.4l6-3.3l6.8,12.7
			l-6,3.3c1.6,5.2,2.2,10.7,1.6,16.3l6.5,1.9l-4.2,13.8l-6.5-1.9c-2.5,5-6.1,9.3-10.4,12.6l3.3,6l-12.7,6.8l-3.3-6
			c-3.8,1.2-7.9,1.8-11.9,1.8V447c12.5,0,24.1-8.1,27.8-20.7c4.7-15.4-4-31.7-19.4-36.3c-2.9-0.8-5.7-1.2-8.5-1.2V378.4z M536.6,387
			l-3.3-6l12.7-6.8l3.3,6c3.8-1.2,7.9-1.8,11.9-1.8v10.3c-12.5,0-24.1,8.1-27.8,20.7c-4.7,15.4,4,31.7,19.4,36.3l0,0
			c2.9,0.8,5.7,1.2,8.5,1.2v10.3c-1.4,0-3-0.1-4.4-0.2l-1.9,6.5l-13.8-4.2l1.9-6.5c-5-2.5-9.3-6.1-12.6-10.4l-6,3.3l-6.8-12.7l6-3.3
			c-1.6-5.2-2.2-10.7-1.6-16.3l-6.5-1.9l4.2-13.8l6.5,1.9C528.7,394.7,532.3,390.4,536.6,387z"/>
		<g>
			<g>
				<path fill="#013C5C" d="M362.5,345.3h179.1c3.7,0,6.6,3,6.6,6.6V465c0,3.7-3,6.6-6.6,6.6H362.5c-3.7,0-6.6-3-6.6-6.6V351.9
					C355.9,348.3,358.8,345.3,362.5,345.3z"/>
				<rect x="365.9" y="358.5" fill="#F06358" width="172.5" height="92.6"/>
				<circle fill="#6A7573" cx="452" cy="352.1" r="2.4"/>
				<rect x="448" y="456.8" fill="#6A7573" width="8.2" height="8.2"/>
				<polygon fill="#6A7573" points="355.9,471.7 548.2,471.7 581.7,485.9 322.4,485.9 				"/>
				<path fill="#013C5C" d="M322.4,485.9h259.2v3.8c0,2.7-2.1,4.8-4.8,4.8H327.2c-2.7,0-4.8-2.1-4.8-4.8L322.4,485.9L322.4,485.9z"
					/>
				<rect x="425.8" y="488.6" fill="#F06358" width="52.3" height="3.4"/>
			</g>
			<g>
				<path fill="#FFFFFF" d="M360.5,472.9c6,0,11.9,0,17.9,0c-0.9,0.5-1.8,1.1-2.8,1.6c-6.2,0-12.4,0-18.7,0
					C358.2,473.9,359.3,473.4,360.5,472.9z"/>
				<path fill="#FFFFFF" d="M393.4,472.9c6,0,11.9,0,17.9,0c-0.5,0.5-1,1.1-1.5,1.6c-6.2,0-12.4,0-18.7,0
					C392,473.9,392.7,473.4,393.4,472.9z"/>
				<path fill="#FFFFFF" d="M426.4,472.9c6,0,12,0,18.1,0c-0.1,0.5-0.2,1.1-0.2,1.6c-6.2,0-12.4,0-18.7,0
					C425.8,473.9,426.1,473.4,426.4,472.9z"/>
				<path fill="#FFFFFF" d="M459.4,472.9c6,0,12,0,18.1,0c0.3,0.5,0.6,1.1,0.9,1.6c-6.2,0-12.4,0-18.7,0
					C459.6,473.9,459.5,473.4,459.4,472.9z"/>
				<path fill="#FFFFFF" d="M492.4,472.9c6,0,11.9,0,17.9,0c0.7,0.5,1.5,1.1,2.2,1.6c-6.2,0-12.4,0-18.7,0
					C493.4,473.9,492.9,473.4,492.4,472.9z"/>
				<path fill="#FFFFFF" d="M525.4,472.9c6,0,12,0,18.1,0c1.1,0.5,2.2,1.1,3.5,1.6c-6.2,0-12.4,0-18.7,0
					C527.2,473.9,526.3,473.4,525.4,472.9z"/>
				<path fill="#FFFFFF" d="M354.6,475.8c6.3,0,12.7,0,19.2,0c-0.9,0.5-1.8,1.1-2.8,1.6c-6.6,0-13.3,0-19.8,0
					C352.4,476.8,353.5,476.3,354.6,475.8z"/>
				<path fill="#FFFFFF" d="M389.7,475.8c6.3,0,12.7,0,19.2,0c-0.5,0.5-1,1.1-1.5,1.6c-6.6,0-13.3,0-19.8,0
					C388.3,476.8,389,476.3,389.7,475.8z"/>
				<path fill="#FFFFFF" d="M424.8,475.8c6.4,0,12.7,0,19.2,0c-0.1,0.5-0.2,1.1-0.3,1.6c-6.6,0-13.3,0-19.8,0
					C424.2,476.8,424.5,476.3,424.8,475.8z"/>
				<path fill="#FFFFFF" d="M459.9,475.8c6.4,0,12.7,0,19.2,0c0.3,0.5,0.6,1.1,0.9,1.6c-6.6,0-13.3,0-19.8,0
					C460.1,476.8,460,476.3,459.9,475.8z"/>
				<path fill="#FFFFFF" d="M495.1,475.8c6.3,0,12.7,0,19.2,0c0.7,0.5,1.4,1.1,2.1,1.6c-6.6,0-13.3,0-19.8,0
					C496,476.8,495.5,476.3,495.1,475.8z"/>
				<path fill="#FFFFFF" d="M530.2,475.8c6.4,0,12.7,0,19.2,0c1.1,0.5,2.2,1.1,3.4,1.6c-6.6,0-13.3,0-19.8,0
					C532,476.8,531.1,476.3,530.2,475.8z"/>
				<path fill="#FFFFFF" d="M348.8,478.6c6.7,0,13.5,0,20.3,0c-0.9,0.5-1.8,1.1-2.8,1.6c-7,0-14,0-20.9,0
					C346.6,479.6,347.7,479.1,348.8,478.6z"/>
				<path fill="#FFFFFF" d="M386.1,478.6c6.7,0,13.6,0,20.3,0c-0.5,0.5-1,1.1-1.5,1.6c-7,0-14,0-20.9,0
					C384.6,479.6,385.3,479.1,386.1,478.6z"/>
				<path fill="#FFFFFF" d="M423.2,478.6c6.8,0,13.6,0,20.3,0c-0.1,0.5-0.2,1.1-0.3,1.6c-7,0-14,0-21,0
					C422.6,479.6,422.9,479.1,423.2,478.6z"/>
				<path fill="#FFFFFF" d="M460.4,478.6c6.7,0,13.6,0,20.3,0c0.3,0.5,0.6,1.1,0.9,1.6c-7,0-14,0-21,0
					C460.6,479.6,460.5,479.1,460.4,478.6z"/>
				<path fill="#FFFFFF" d="M497.6,478.6c6.7,0,13.6,0,20.3,0c0.7,0.5,1.4,1.1,2.1,1.6c-7,0-14,0-20.9,0
					C498.6,479.6,498.1,479.1,497.6,478.6z"/>
				<path fill="#FFFFFF" d="M534.8,478.6c6.7,0,13.6,0,20.3,0c1.1,0.5,2.2,1.1,3.4,1.6c-7,0-14,0-21,0
					C536.7,479.6,535.8,479.1,534.8,478.6z"/>
				<path fill="#FFFFFF" d="M343,481.4c36.3,0,72.6,0,108.9,0c36.3,0,72.7,0,109,0c1.1,0.5,2.2,1.1,3.4,1.6c-37.4,0-75,0-112.4,0
					s-75,0-112.4,0C340.8,482.5,341.9,482,343,481.4z"/>
			</g>
		</g>
		<polygon fill="#EE4E42" points="538.2,358.5 365.9,451.1 538.2,451.1 		"/>
		<g>
			<path fill="#B5D973" d="M452.6,312.9c1.4,0,3,0.1,4.4,0.2l1.9-6.5l13.8,4.2l-1.9,6.5c5,2.5,9.3,6.1,12.6,10.4l6-3.3l6.8,12.7
				l-6,3.3c1.6,5.2,2.2,10.7,1.6,16.3l6.5,1.9l-4.2,13.8l-6.5-1.9c-2.5,5-6.1,9.3-10.4,12.6l3.3,6l-12.7,6.8l-3.3-6
				c-3.8,1.2-7.9,1.8-11.9,1.8v-10.3c12.5,0,24.1-8.1,27.8-20.7c4.7-15.4-4-31.7-19.4-36.3c-2.9-0.8-5.7-1.2-8.5-1.2L452.6,312.9
				L452.6,312.9z M428.1,321.6l-3.3-6l12.7-6.8l3.3,6c3.8-1.2,7.9-1.8,11.9-1.8v10.3c-12.5,0-24.1,8.1-27.8,20.7
				c-4.7,15.4,4,31.7,19.4,36.3l0,0c2.9,0.8,5.7,1.2,8.5,1.2v10.3c-1.4,0-3-0.1-4.4-0.2l-1.9,6.5l-13.8-4.2l1.9-6.5
				c-5-2.5-9.3-6.1-12.6-10.4l-6,3.3l-6.8-12.7l6-3.3c-1.6-5.2-2.2-10.7-1.6-16.3l-6.5-1.9l4.2-13.8l6.5,1.9
				C420.2,329.2,423.8,324.9,428.1,321.6z"/>
			<path fill="#B3D6F5" d="M422.2,423.3l3.6,3l-7.4,8.9l-3.6-3c-2.5,1.9-5.3,3.5-8.4,4.4l0.4,4.7l-8.5,0.7v-13.1
				c5.2,0,10.3-2.2,13.9-6.4c6.4-7.6,5.4-19.1-2.2-25.4l0,0c-1.8-1.5-4-2.8-6.3-3.5c-1.7-0.5-3.5-0.8-5.3-0.8v-13.1l3.1-0.3l0.4,4.7
				c3.2,0.4,6.2,1.3,9,2.9l3-3.6l8.9,7.4l-3,3.6c1.9,2.5,3.4,5.3,4.4,8.4l4.7-0.4l1,11.5l-4.7,0.4
				C424.6,417.5,423.7,420.6,422.2,423.3z M398.3,442l-3.1,0.3l-0.4-4.7c-3.2-0.4-6.2-1.3-9-2.9l-3,3.6l-8.9-7.4l3-3.6
				c-1.9-2.5-3.4-5.3-4.4-8.4l-4.7,0.4l-1-11.5l4.7-0.4c0.4-3.2,1.3-6.2,2.9-9l-3.6-3l7.4-8.9l3.6,3c2.5-1.9,5.3-3.4,8.4-4.4
				l-0.4-4.7l8.5-0.7v13.1c-5.2,0-10.3,2.2-13.9,6.4c-6.4,7.6-5.4,19.1,2.2,25.4c1.8,1.5,4,2.8,6.3,3.5c1.7,0.5,3.5,0.8,5.3,0.8
				L398.3,442L398.3,442z"/>
		</g>
		<g>
			<path fill="#FFFFFF" stroke="#000000" stroke-width="0.5669" stroke-miterlimit="22.9256" d="M513.1,443.7
				c10.2,0,18.5-8.3,18.5-18.5s-8.3-18.5-18.5-18.5s-18.5,8.3-18.5,18.5C494.7,435.4,502.9,443.7,513.1,443.7z"/>
			<g>
				<path fill="#FFAE00" d="M513.1,408.5c9.2,0,16.6,7.4,16.6,16.6s-7.4,16.6-16.6,16.6v3.8c11.3,0,20.5-9.2,20.5-20.5
					c0-11.3-9.2-20.5-20.5-20.5V408.5z M513.1,408.5L513.1,408.5v-3.8l0,0c-11.3,0-20.5,9.2-20.5,20.5c0,11.3,9.2,20.5,20.5,20.5
					l0,0V442l0,0c-9.2,0-16.6-7.4-16.6-16.6C496.4,416.1,503.8,408.5,513.1,408.5z"/>
				<path fill="#FFAE00" d="M513.1,413.1L513.1,413.1c0.5,0,0.9,0.4,0.9,0.9v10.2c0,0.5-0.4,0.9-0.9,0.9l0,0c-0.5,0-0.9-0.4-0.9-0.9
					v-10.2C512.1,413.5,512.6,413.1,513.1,413.1z"/>
				<path fill="#FFAE00" d="M505.5,418.4L505.5,418.4c0.3-0.4,0.9-0.4,1.3-0.1l6.2,5.5c0.4,0.3,0.4,0.9,0.1,1.3l0,0
					c-0.3,0.4-0.9,0.4-1.3,0.1l-6.2-5.5C505.2,419.5,505.1,418.8,505.5,418.4z"/>
				<circle fill="#FFAE00" cx="513.1" cy="411.1" r="1"/>
				<circle fill="#FFAE00" cx="527.8" cy="425.7" r="1"/>
				<circle fill="#FFAE00" cx="513.2" cy="440.4" r="1"/>
				<circle fill="#FFAE00" cx="498.5" cy="425.8" r="1"/>
				<path fill="#FFAE00" d="M513.1,427.7c1.3,0,2.4-1.1,2.4-2.4c0-1.3-1.1-2.4-2.4-2.4c-1.3,0-2.4,1.1-2.4,2.4
					C510.6,426.6,511.7,427.7,513.1,427.7z"/>
			</g>
		</g>
		<g>
			<path fill="#FFFFFF" d="M595.8,313.9c7.2,1.5,12.6,7,12.6,13.5l0,0c0,6.7-5.6,13.7-13.3,13.7h-33.7c-8.2,0-14.5-6.5-14.5-13.7
				l0,0c0-6.5,5.4-12,12.6-13.5c0-0.1,0-0.3,0-0.4c0-8.4,8.1-15.2,18.1-15.2s18.1,6.8,18.1,15.2
				C595.8,313.6,595.8,313.7,595.8,313.9z"/>
			<path fill="#91BDE3" d="M568.9,308.4c5.1,1,8.9,4.9,8.9,9.5l0,0c0,4.7-3.9,9.5-9.3,9.5H545c-5.7,0-10.1-4.6-10.1-9.5l0,0
				c0-4.6,3.8-8.4,8.9-9.5c0-0.1,0-0.2,0-0.3c-0.2-5.8,5.5-10.6,12.4-10.6s12.6,4.8,12.6,10.6C568.9,308.2,568.9,308.3,568.9,308.4z
				"/>
		</g>
		<path fill="#427BAD" d="M329.5,383.2c0.6,0,1.3,0,1.9,0.1l0.9-3l6.1,1.8l-0.9,3c2.2,1.1,4.2,2.8,5.6,4.6l2.7-1.4l3.1,5.7l-2.7,1.4
			c0.7,2.3,1,4.8,0.7,7.2l3,0.9l-1.8,6.1l-3-0.9c-1.1,2.2-2.8,4.2-4.6,5.6l1.4,2.7l-5.7,3.1l-1.4-2.7c-1.7,0.5-3.5,0.8-5.3,0.8v-4.5
			c5.6,0,10.7-3.6,12.4-9.2c2-6.8-1.8-14.1-8.7-16.2c-1.2-0.4-2.5-0.6-3.8-0.6V383.2z M318.4,387l-1.4-2.7l5.7-3.1l1.4,2.7
			c1.7-0.5,3.5-0.8,5.3-0.8v4.6c-5.6,0-10.7,3.6-12.4,9.2c-2,6.8,1.8,14.1,8.7,16.2l0,0c1.2,0.4,2.5,0.6,3.8,0.6v4.6
			c-0.6,0-1.3,0-1.9-0.1l-0.9,3l-6.1-1.8l0.9-3c-2.2-1.1-4.2-2.8-5.6-4.6l-2.7,1.4l-3.1-5.7l2.7-1.4c-0.7-2.3-1-4.8-0.7-7.2l-3-0.9
			l1.8-6.1l3,0.9C315,390.5,316.5,388.6,318.4,387z"/>
		<g>
			<path fill="#CAE4FC" d="M461.9,426.9c1.3-0.5,1-2.5-0.5-2.4c-0.1,0-0.2,0-0.3,0.1H461l-0.9,0.3l-0.9,0.3l-0.3,0.1
				c-0.5,0.2-0.8,0.6-0.9,1.1c0,0.9,0.8,1.5,1.6,1.2l0.3-0.1l1-0.3L461.9,426.9L461.9,426.9z"/>
			<path fill="#CAE4FC" d="M476.1,421.6c0.3-0.1,0.5-0.3,0.6-0.6c0.5-1-0.5-2.1-1.6-1.7l-0.5,0.2l-0.9,0.4l-0.8,0.3
				c-1.2,0.5-0.9,2.3,0.4,2.4c0.2,0,0.3,0,0.5-0.1l0.8-0.3l1-0.4L476.1,421.6z"/>
			<path fill="#CAE4FC" d="M489.8,415.4c1.2-0.6,0.7-2.4-0.7-2.3c-0.1,0-0.3,0.1-0.4,0.1l-0.7,0.3l-0.9,0.5l-0.6,0.3
				c-1.2,0.6-0.7,2.5,0.7,2.3c0.1,0,0.3-0.1,0.4-0.1l0.6-0.3l0.9-0.5L489.8,415.4z"/>
			<path fill="#CAE4FC" d="M502.9,408c0.5-0.3,0.7-1,0.5-1.6c-0.3-0.6-1.1-0.9-1.7-0.5l-0.7,0.4l-0.9,0.5l-0.5,0.3
				c-0.3,0.2-0.5,0.5-0.6,0.8c-0.2,1,0.9,1.8,1.8,1.3l0.5-0.3l0.9-0.5L502.9,408z"/>
			<path fill="#CAE4FC" d="M515.4,399.7c1.1-0.8,0.3-2.5-1.1-2.2c-0.1,0-0.3,0.1-0.4,0.2l-0.6,0.4l-0.8,0.6l-0.5,0.4
				c-1,0.8-0.4,2.4,0.9,2.2c0.2,0,0.4-0.1,0.5-0.2l0.5-0.4l0.9-0.6L515.4,399.7z"/>
			<path fill="#CAE4FC" d="M527.1,390.1c0.6-0.5,0.5-1.4-0.1-1.9c-0.5-0.4-1.1-0.3-1.6,0.1l-0.5,0.4l-0.8,0.7l-0.6,0.5
				c-1,0.9-0.1,2.5,1.2,2.1c0.2-0.1,0.3-0.1,0.4-0.2l0.6-0.5l0.8-0.7L527.1,390.1z"/>
			<path fill="#CAE4FC" d="M537.7,379.4c0.9-1.1-0.4-2.8-1.6-1.8c-0.1,0.1-0.1,0.1-0.2,0.2l-0.3,0.4l-0.7,0.8l-0.6,0.6
				c-0.9,0.9,0.1,2.5,1.4,2c0.2-0.1,0.3-0.2,0.4-0.3l0.6-0.6l0.7-0.8L537.7,379.4z"/>
			<path fill="#CAE4FC" d="M547.1,367.6c0.7-1-0.4-2.4-1.6-1.8c-0.2,0.1-0.3,0.2-0.4,0.4l-0.2,0.3l-0.6,0.9l-0.6,0.9
				c-0.8,1.1,0.6,2.5,1.7,1.7c0.1-0.1,0.2-0.2,0.3-0.3l0.6-0.9l0.6-0.9L547.1,367.6z"/>
			<polygon fill="#CAE4FC" points="539.9,358.9 557.5,349.5 556,369.4 			"/>
		</g>
		<g>
			<path fill="#CAE4FC" d="M456.9,410.6c0.4-0.2,0.6-0.7,0.6-1.1c-0.1-0.9-1-1.5-1.8-1l-0.6,0.3l-0.8,0.5l-0.7,0.4
				c-1.1,0.7-0.6,2.5,0.8,2.3c0.1,0,0.3-0.1,0.4-0.1l0.7-0.4l0.9-0.5L456.9,410.6z"/>
			<path fill="#CAE4FC" d="M469.6,402.3c1.1-0.8,0.3-2.5-1-2.2c-0.1,0-0.3,0.1-0.4,0.2l-0.5,0.4l-0.8,0.6l-0.7,0.5
				c-1,0.7-0.5,2.4,0.8,2.2c0.2,0,0.4-0.1,0.5-0.2l0.7-0.5l0.8-0.6L469.6,402.3z"/>
			<path fill="#CAE4FC" d="M481.4,393c1-0.8,0.1-2.5-1.2-2.1c-0.2,0.1-0.3,0.1-0.4,0.2l-0.6,0.5l-0.7,0.6l-0.5,0.4
				c-0.4,0.4-0.6,1-0.3,1.5c0.3,0.7,1.3,0.9,1.9,0.4l0.5-0.4l0.7-0.6L481.4,393z"/>
			<path fill="#CAE4FC" d="M492.1,382.4c0.9-1-0.2-2.5-1.4-1.9c-0.2,0.1-0.3,0.2-0.4,0.3l-0.2,0.3l-0.6,0.7l-0.6,0.7l-0.1,0.1
				c-0.9,1,0.2,2.7,1.5,1.9c0.1-0.1,0.2-0.1,0.3-0.2l0.2-0.2l0.6-0.7l0.6-0.7L492.1,382.4z"/>
			<path fill="#CAE4FC" d="M501.4,370.4c0.7-1.1-0.5-2.4-1.7-1.7c-0.1,0.1-0.3,0.2-0.4,0.4l-0.1,0.2l-0.5,0.7l-0.5,0.7l-0.2,0.3
				c-0.8,1.1,0.5,2.5,1.7,1.7c0.1-0.1,0.2-0.2,0.3-0.3l0.2-0.3l0.5-0.8l0.5-0.8L501.4,370.4z"/>
			<path fill="#CAE4FC" d="M508.6,357.1c0.5-1.1-0.8-2.2-1.8-1.5c-0.2,0.1-0.3,0.3-0.4,0.5l-0.2,0.4l-0.4,0.8l-0.4,0.8l-0.1,0.2
				c-0.1,0.3-0.1,0.5-0.1,0.8c0.3,1.1,1.8,1.3,2.3,0.3l0.1-0.2l0.4-0.8l0.4-0.8L508.6,357.1z"/>
			<path fill="#CAE4FC" d="M513.3,342.7c0.3-1.3-1.4-2.1-2.2-1c-0.1,0.1-0.2,0.3-0.2,0.4l-0.2,0.7l-0.2,0.9l-0.2,0.8
				c-0.1,0.5,0.1,1.1,0.6,1.4c0.7,0.4,1.6,0,1.8-0.8l0.2-0.8l0.2-0.9L513.3,342.7z"/>
			<polygon fill="#CAE4FC" points="502.5,335.3 513.9,318.1 522.3,336.8 			"/>
		</g>
	</g>
	<g>
		<g>
			<path fill="#0090CF" d="M164.6,405l-16.3-40.5h-0.2c0.2,2.4,0.2,5,0.2,7.6V405h-3v-43.9h4.7l15.5,38.5h0.2l15.5-38.5h4.6V405
				h-3.1v-33.2c0-2.3,0.1-4.7,0.4-7.2h-0.2L166.5,405C166.5,405,164.6,405,164.6,405z"/>
			<path fill="#0090CF" d="M219.5,389.5h-17.8l-6.1,15.5h-3.4l17.6-44.1h1.9l17.2,44.1h-3.5L219.5,389.5z M202.7,386.7h15.7l-6-15.8
				c-0.5-1.2-1.1-3-1.8-5.2c-0.5,1.9-1.1,3.7-1.7,5.2L202.7,386.7z"/>
			<path fill="#0090CF" d="M235.2,405v-43.9h3.1V405H235.2z"/>
			<path fill="#0090CF" d="M250.7,405v-43.9h3.1v41h20.9v2.9C274.6,405,250.7,405,250.7,405z"/>
		</g>
		<g>
			<path fill="#727272" d="M116.3,435.4c-1.2,0-2.1-0.5-2.8-1.4h-0.1v0.6c0,0.4,0,0.8,0,1.2v3.1h-0.7v-11.7h0.6l0.1,1.1l0,0
				c0.5-0.9,1.4-1.3,2.7-1.3c1.1,0,1.9,0.4,2.4,1.1c0.6,0.7,0.8,1.7,0.8,3.2c0,1.3-0.3,2.3-0.9,3.1
				C118.1,435.1,117.3,435.4,116.3,435.4z M116.3,434.8c0.8,0,1.4-0.3,1.9-0.9c0.4-0.6,0.7-1.4,0.7-2.5c0-2.3-0.8-3.6-2.5-3.6
				c-0.9,0-1.6,0.3-2,0.8c-0.4,0.5-0.6,1.3-0.6,2.5v0.2c0,1.2,0.2,2.1,0.6,2.8C114.7,434.4,115.3,434.8,116.3,434.8z"/>
			<path fill="#727272" d="M128.6,431.2c0,1.3-0.3,2.3-0.9,3.1c-0.6,0.7-1.5,1.1-2.7,1.1c-0.7,0-1.3-0.2-1.8-0.5
				c-0.5-0.3-0.9-0.8-1.2-1.4c-0.3-0.6-0.4-1.4-0.4-2.2c0-1.3,0.3-2.3,0.9-3.1c0.6-0.7,1.5-1.1,2.7-1.1s1.9,0.4,2.7,1.1
				C128.3,428.8,128.6,429.9,128.6,431.2z M122.2,431.2c0,1.1,0.2,1.9,0.7,2.7c0.5,0.6,1.2,0.9,2,0.9c0.8,0,1.6-0.3,2-0.9
				c0.5-0.6,0.7-1.5,0.7-2.7s-0.2-1.9-0.7-2.5c-0.5-0.6-1.2-0.9-2-0.9c-0.8,0-1.6,0.3-2,0.9C122.4,429.2,122.2,430.1,122.2,431.2z"
				/>
			<path fill="#727272" d="M137.3,435.3l-1.7-5.4c-0.1-0.4-0.3-0.9-0.4-1.6l0,0l-0.2,0.5l-0.3,1.1l-1.8,5.4h-0.7l-2.3-8.1h0.8
				l1.3,4.7c0.3,1.1,0.5,2,0.6,2.5l0,0c0.3-1.1,0.5-1.9,0.6-2.3l1.6-4.9h0.7l1.6,4.9c0.4,1.1,0.6,1.9,0.6,2.3l0,0
				c0-0.3,0.2-1.2,0.6-2.5l1.2-4.7h0.7l-2.2,8.1H137.3z"/>
			<path fill="#727272" d="M145.2,435.4c-1.2,0-2.1-0.4-2.8-1.1c-0.6-0.7-1-1.7-1-3.1c0-1.3,0.3-2.3,0.9-3.1
				c0.6-0.8,1.5-1.1,2.5-1.1c0.9,0,1.7,0.3,2.2,1s0.8,1.5,0.8,2.8v0.6h-5.8c0,1.1,0.3,1.9,0.8,2.5c0.5,0.6,1.2,0.9,2.1,0.9
				c0.5,0,0.9,0,1.2-0.1s0.8-0.2,1.3-0.4v0.7c-0.4,0.2-0.9,0.3-1.2,0.4C146,435.4,145.6,435.4,145.2,435.4z M145,427.6
				c-0.8,0-1.4,0.3-1.8,0.8c-0.5,0.5-0.7,1.2-0.8,2.2h5c0-0.9-0.2-1.6-0.6-2.2C146.2,427.9,145.7,427.6,145,427.6z"/>
			<path fill="#727272" d="M153.4,427c0.3,0,0.7,0,1.1,0.1l-0.1,0.7c-0.3-0.1-0.7-0.1-1-0.1c-0.7,0-1.2,0.3-1.7,0.9
				c-0.4,0.6-0.6,1.3-0.6,2.2v4.5h-0.7v-8.1h0.6l0.1,1.4h0.1c0.3-0.6,0.7-1,1-1.2C152.4,427.1,152.9,427,153.4,427z"/>
			<path fill="#727272" d="M159.4,435.4c-1.2,0-2.1-0.4-2.8-1.1c-0.6-0.7-1-1.7-1-3.1c0-1.3,0.3-2.3,0.9-3.1
				c0.6-0.8,1.5-1.1,2.5-1.1c0.9,0,1.7,0.3,2.2,1s0.8,1.5,0.8,2.8v0.6h-5.8c0,1.1,0.3,1.9,0.8,2.5s1.2,0.9,2.1,0.9
				c0.5,0,0.9,0,1.2-0.1c0.3-0.1,0.8-0.2,1.3-0.4v0.7c-0.4,0.2-0.9,0.3-1.2,0.4C160.4,435.4,159.9,435.4,159.4,435.4z M159.2,427.6
				c-0.8,0-1.4,0.3-1.8,0.8c-0.5,0.5-0.7,1.2-0.8,2.2h5c0-0.9-0.2-1.6-0.6-2.2C160.5,427.9,160,427.6,159.2,427.6z"/>
			<path fill="#727272" d="M167.5,427c0.6,0,1.1,0.1,1.5,0.3s0.8,0.6,1.1,1.1l0,0c0-0.6,0-1.2,0-1.8v-3h0.7v11.6h-0.5l-0.2-1.2h-0.1
				c-0.6,0.9-1.5,1.4-2.7,1.4c-1.1,0-1.9-0.3-2.5-1c-0.6-0.7-0.9-1.7-0.9-3.1c0-1.4,0.3-2.4,0.9-3.2
				C165.6,427.4,166.4,427,167.5,427z M167.5,427.7c-0.9,0-1.5,0.3-2,0.9c-0.4,0.6-0.7,1.5-0.7,2.7c0,2.2,0.9,3.5,2.7,3.5
				c0.9,0,1.6-0.3,2-0.8s0.6-1.4,0.6-2.7v-0.1c0-1.2-0.2-2.1-0.6-2.7C169.1,427.9,168.4,427.7,167.5,427.7z"/>
			<path fill="#727272" d="M181,427c1.1,0,1.9,0.3,2.5,1c0.6,0.7,0.8,1.7,0.8,3.2c0,1.3-0.3,2.3-0.9,3.2c-0.6,0.8-1.4,1.1-2.5,1.1
				c-0.6,0-1.1-0.1-1.5-0.4c-0.5-0.2-0.8-0.6-1.1-1h-0.1l-0.2,1.2h-0.5v-11.6h0.7v3c0,0.4,0,0.8,0,1.2v0.6h0.1
				c0.3-0.5,0.7-0.8,1.1-1.1S180.4,427,181,427z M181,427.7c-0.9,0-1.6,0.3-2,0.8s-0.6,1.4-0.6,2.7v0.1c0,1.2,0.2,2.1,0.6,2.7
				s1.1,0.8,2,0.8c0.9,0,1.5-0.3,2-0.9c0.4-0.6,0.7-1.5,0.7-2.7C183.6,428.8,182.7,427.7,181,427.7z"/>
			<path fill="#727272" d="M185.2,427.2h0.7l1.7,4.6c0.5,1.4,0.8,2.3,1,2.9l0,0c0.2-0.6,0.5-1.6,1-2.9l1.7-4.5h0.7l-3.7,9.4
				c-0.3,0.7-0.5,1.3-0.7,1.5c-0.2,0.3-0.4,0.5-0.7,0.6s-0.6,0.2-0.9,0.2c-0.3,0-0.6-0.1-0.9-0.2v-0.6c0.3,0.1,0.6,0.1,0.9,0.1
				c0.2,0,0.5-0.1,0.7-0.2c0.2-0.1,0.4-0.3,0.5-0.5c0.2-0.2,0.3-0.6,0.5-1.2c0.2-0.5,0.3-0.9,0.4-1L185.2,427.2z"/>
		</g>
	</g>
</g>
<g>
	<path fill="#2B2B2B" d="M44.9,404.7h-4.1c-0.5,0-0.7-0.3-0.5-0.9l6.8-25.9c0.2-0.6,0.6-0.9,1.3-0.9h5.7c0.7,0,1.1,0.3,1.3,0.9
		l6.8,25.9c0.2,0.6,0,0.9-0.5,0.9h-4.1c-0.3,0-0.5-0.1-0.6-0.2c-0.1-0.1-0.2-0.4-0.3-0.7l-1.2-4.7H47l-1.2,4.7
		c-0.1,0.3-0.2,0.6-0.3,0.7C45.4,404.6,45.2,404.7,44.9,404.7z M51.1,382.2L48,394.7h6.4l-3.1-12.5H51.1z"/>
	<path fill="#2B2B2B" d="M81.1,404.7H66.9c-0.6,0-0.9-0.3-0.9-0.9v-25.9c0-0.6,0.3-0.9,0.9-0.9h3.7c0.6,0,0.9,0.3,0.9,0.9v21.5
		c0,0.3,0.2,0.5,0.5,0.5h9.1c0.6,0,0.9,0.3,0.9,0.9v2.9C81.9,404.4,81.7,404.7,81.1,404.7z"/>
	<path fill="#2B2B2B" d="M93.9,404.7h-3.6c-0.6,0-0.9-0.3-0.9-0.9v-21.6c0-0.3-0.2-0.5-0.5-0.5H84c-0.6,0-0.9-0.3-0.9-0.9v-2.9
		c0-0.6,0.3-0.9,0.9-0.9h16.3c0.6,0,0.9,0.3,0.9,0.9v2.9c0,0.6-0.3,0.9-0.9,0.9h-4.9c-0.3,0-0.5,0.2-0.5,0.5v21.6
		C94.8,404.4,94.5,404.7,93.9,404.7z"/>
	<path fill="#2B2B2B" d="M110.1,377.9v25.9c0,0.6-0.3,0.9-0.9,0.9h-3.7c-0.6,0-0.9-0.3-0.9-0.9v-25.9c0-0.6,0.3-0.9,0.9-0.9h3.7
		C109.8,377,110.1,377.3,110.1,377.9z"/>
	<path fill="#2B2B2B" d="M115.2,397.6v-0.9c0-0.6,0.3-0.9,0.9-0.9h3.7c0.6,0,0.9,0.3,0.9,0.9v0.3c0,1.1,0.2,1.8,0.6,2.2
		c0.4,0.4,1.2,0.6,2.4,0.6h2c1.1,0,1.9-0.2,2.3-0.6c0.4-0.4,0.7-1.2,0.7-2.4v-0.5c0-0.8-0.3-1.5-1-1.9c-0.7-0.4-1.5-0.7-2.5-0.8
		c-1-0.1-2.1-0.3-3.3-0.5c-1.2-0.2-2.2-0.6-3.3-0.9c-1-0.4-1.8-1.1-2.5-2.3c-0.7-1.1-1-2.6-1-4.4v-1.5c0-2.2,0.6-4,1.9-5.2
		c1.3-1.2,3-1.9,5.3-1.9h4.3c2.3,0,4,0.6,5.3,1.9c1.3,1.2,1.9,3,1.9,5.2v0.8c0,0.6-0.3,0.9-0.9,0.9h-3.7c-0.6,0-0.9-0.3-0.9-0.9
		v-0.3c0-1.1-0.2-1.9-0.6-2.3c-0.4-0.4-1.2-0.6-2.4-0.6h-1.7c-1.2,0-2,0.2-2.4,0.7c-0.4,0.4-0.6,1.3-0.6,2.6v0.8
		c0,1.4,1.2,2.1,3.5,2.3c2.4,0.2,4.6,0.7,6.5,1.5c1,0.4,1.8,1.2,2.5,2.3c0.7,1.1,1,2.5,1,4.2v1.5c0,2.2-0.6,4-1.9,5.2
		c-1.3,1.2-3,1.9-5.3,1.9h-4.7c-2.2,0-4-0.6-5.3-1.9C115.9,401.6,115.2,399.9,115.2,397.6z"/>
</g>
<g>
	<path id="path2998" fill="#4885ED" d="M217.9,428.6H209v2.6h6.3c-0.3,3.7-3.4,5.3-6.3,5.3c-3.7,0-6.9-2.9-6.9-7c0-4,3.1-7,6.9-7
		c3,0,4.7,1.9,4.7,1.9l1.8-1.9c0,0-2.4-2.6-6.7-2.6c-5.5,0-9.7,4.6-9.7,9.6c0,4.9,4,9.7,9.9,9.7c5.2,0,9-3.5,9-8.8
		C218.1,429.2,217.9,428.6,217.9,428.6L217.9,428.6z"/>
	<path id="path3000" fill="#DB3236" d="M225.2,426.7c-3.6,0-6.2,2.8-6.2,6.2c0,3.4,2.5,6.3,6.3,6.3c3.4,0,6.2-2.6,6.2-6.2
		C231.4,428.8,228.1,426.7,225.2,426.7L225.2,426.7z M225.2,429.1c1.8,0,3.5,1.4,3.5,3.8c0,2.3-1.7,3.8-3.5,3.8
		c-2,0-3.5-1.6-3.5-3.8C221.6,430.7,223.2,429.1,225.2,429.1L225.2,429.1z"/>
	<path id="path3005" fill="#F4C20D" d="M238.7,426.7c-3.6,0-6.2,2.8-6.2,6.2c0,3.4,2.5,6.3,6.3,6.3c3.4,0,6.2-2.6,6.2-6.2
		C244.9,428.8,241.7,426.7,238.7,426.7L238.7,426.7z M238.8,429.1c1.8,0,3.5,1.4,3.5,3.8c0,2.3-1.7,3.8-3.5,3.8
		c-2,0-3.5-1.6-3.5-3.8C235.2,430.7,236.7,429.1,238.8,429.1L238.8,429.1z"/>
	<path id="path3007" fill="#4885ED" d="M252,426.7c-3.3,0-6,2.9-6,6.2c0,3.7,3,6.2,5.9,6.2c1.8,0,2.7-0.7,3.4-1.5v1.2
		c0,2.1-1.3,3.4-3.3,3.4c-1.9,0-2.8-1.4-3.2-2.2l-2.4,1c0.8,1.8,2.5,3.7,5.6,3.7c3.3,0,5.8-2.1,5.8-6.5v-11.1h-2.6v1.1
		C254.6,427.3,253.5,426.7,252,426.7L252,426.7z M252.3,429.1c1.6,0,3.3,1.4,3.3,3.8c0,2.4-1.7,3.8-3.4,3.8c-1.8,0-3.4-1.4-3.4-3.7
		C248.8,430.6,250.5,429.1,252.3,429.1L252.3,429.1z"/>
	<path id="path3011" fill="#DB3236" d="M269.5,426.7c-3.1,0-5.8,2.5-5.8,6.2c0,3.9,2.9,6.2,6.1,6.2c2.6,0,4.2-1.4,5.2-2.7l-2.1-1.4
		c-0.6,0.9-1.5,1.7-3,1.7c-1.7,0-2.5-1-3-1.9l8.3-3.5l-0.4-1C273.9,428.4,272,426.7,269.5,426.7L269.5,426.7z M269.6,429.1
		c1.1,0,1.9,0.6,2.3,1.3l-5.6,2.3C266.1,430.9,267.8,429.1,269.6,429.1L269.6,429.1z"/>
	<path id="path3015" fill="#3CBA54" d="M259.8,438.8h2.7v-18.3h-2.7V438.8z"/>
</g>
</svg>
